<svg viewBox="0 0 16 16" xmlns="http://www.w3.org/2000/svg"><g style="display:inline"><path style="fill:#000;fill-opacity:1;stroke:none;stroke-width:.0310904" d="M1.38.08C.54.13.04.95.03 1.73-.01 4.02.02 6.31 0 8.59c.01 1.96-.02 3.92.02 5.88.02.92.94 1.49 1.8 1.5 1.11.03 2.24-.08 3.36-.04 2.31.01 4.62-.04 6.93.03 1.05.01 2.2.2 3.18-.3.86-.64.68-1.85.69-2.78l-.01-11.22C16 .8 15.26.13 14.44.06c-1.16-.14-2.32.05-3.49 0C8.16.06 5.37.11 2.58 0c-.4 0-.8.02-1.2.08m4.78 2.5c.81-.23 2.52.34 1.65 1.37-.73.5-1.45-.75-2.17-.2-.53.63-.75 1.84-.01 2.4.51.12 1.53.89.48 1.1-.94.1-1.04 1.15-1.03 1.9.05.88 0 1.76.1 2.64-.1.65 1.71 1.36.5 1.64-.92.12-1.85.04-2.76-.1-.76-.5.91-.95.63-1.74 0-1.24.18-2.5-.07-3.72-.45-.48-.99-1.1-.3-1.68.7-.96.63-2.39 1.67-3.12a2.7 2.7 0 0 1 1.3-.48m4.53 3.62c.77 0 1.92-.16 2.31.68.45.7-.32 1.91-.89.86-.44-.71-1.43-1.1-2.17-.6-.73.47-.2 1.42.48 1.61 1.02.5 2.4.79 2.86 1.97.43 1.16-.49 2.48-1.69 2.61-1.05.13-2.26.27-3.2-.34-.51-.42-.5-2.24.42-1.57.52.77 1.44 1.4 2.4 1.24.73-.12 1.01-1.16.4-1.6-.99-.84-2.6-.9-3.25-2.13-.55-1.15.44-2.55 1.66-2.66.22-.04.45-.05.67-.07Z"/></g></svg>